<?xml version="1.0" encoding="UTF-8" standalone="no"?>
<svg width="161px" height="54px" viewBox="0 0 161 54" version="1.1" xmlns="http://www.w3.org/2000/svg" xmlns:xlink="http://www.w3.org/1999/xlink">
    <!-- Generator: Sketch 3.8.3 (29802) - http://www.bohemiancoding.com/sketch -->
    <title>Upme_3_White</title>
    <desc>Created with Sketch.</desc>
    <defs></defs>
    <g id="Assets" stroke="none" stroke-width="1" fill="none" fill-rule="evenodd">
        <g id="Upme_3_White" fill="#FFFFFF">
            <path d="M13.6000004,11 L13.6000004,17.5 L13.528,17.5 L13.528,36.098 C13.528,39.1220151 14.229993,41.5069913 15.634,43.253 C17.038007,44.9990087 18.9279881,45.872 21.304,45.872 C23.6800119,45.872 25.5609931,44.9990087 26.947,43.253 C28.3330069,41.5069913 29.026,39.1220151 29.026,36.098 L29.026,15.254 L37.45,15.254 L37.45,36.368 C37.45,41.8400274 35.9380151,46.0429853 32.914,48.977 C29.8899849,51.9110147 26.0200236,53.378 21.304,53.378 C16.5879764,53.378 12.7090152,51.9020148 9.667,48.95 C6.62498479,45.9979852 5.104,41.8040272 5.104,36.368 L5.104,17.5 L5,17.5 L5,11 L0.599975586,11 L9.59997559,0 L18.5999756,11 L13.6000004,11 Z M72.199,18.629 C74.8450132,20.8790112 76.168,24.3349767 76.168,28.997 C76.168,33.6590233 74.8090136,37.0699892 72.091,39.23 C69.3729864,41.3900108 65.2240279,42.47 59.644,42.47 L54.622,42.47 L54.622,53 L46.198,53 L46.198,15.254 L59.536,15.254 C65.332029,15.254 69.5529868,16.3789887 72.199,18.629 L72.199,18.629 Z M66.016,33.479 C67.024005,32.3449943 67.528,30.6890109 67.528,28.511 C67.528,26.3329891 66.8710066,24.7850046 65.557,23.867 C64.2429934,22.9489954 62.2000139,22.49 59.428,22.49 L54.622,22.49 L54.622,35.18 L60.292,35.18 C63.100014,35.18 65.007995,34.6130057 66.016,33.479 L66.016,33.479 Z" id="UP-Copy"></path>
            <path d="M116.605419,29.3795779 L106.459374,49.8863989 L101.466875,49.8863989 L91.3745133,29.3795779 L91.3745133,53 L83,53 L83,15.4757386 L94.327066,15.4757386 L103.989966,36.0899251 L113.706549,15.4757386 L124.979932,15.4757386 L124.979932,53 L116.605419,53 L116.605419,29.3795779 Z M160.269489,15.4757386 L160.269489,22.9376447 L141.587883,22.9376447 L141.587883,30.6679646 L158.390592,30.6679646 L158.390592,37.807774 L141.587883,37.807774 L141.587883,45.5917767 L160.86,45.5917767 L160.86,53 L133.21337,53 L133.21337,15.4757386 L160.269489,15.4757386 Z" id="ME"></path>
        </g>
    </g>
</svg>